<svg width="58" height="78" viewBox="0 0 58 78" fill="none" xmlns="http://www.w3.org/2000/svg">
<g clip-path="url(#clip0_6_12)">
<path d="M38.0707 15.7339C38.0707 16.6409 37.3342 17.3742 36.423 17.3742H22.7853C21.8741 17.3742 21.1376 16.6409 21.1376 15.7339V2.15048C21.1376 1.24341 21.8741 0.510193 22.7853 0.510193H36.4306C37.3418 0.510193 38.0783 1.25097 38.0783 2.15048V15.7339H38.0707Z" fill="white"/>
<path d="M58.3982 15.7339C58.3982 16.6409 57.6616 17.3742 56.7504 17.3742H43.1052C42.194 17.3742 41.4574 16.6409 41.4574 15.7339V2.15048C41.4574 1.24341 42.194 0.510193 43.1052 0.510193H56.7504C57.6616 0.510193 58.3982 1.25097 58.3982 2.15048V15.7339Z" fill="white"/>
<path d="M58.3982 56.1968C58.3982 57.1039 57.6616 57.8371 56.7504 57.8371H43.1052C42.194 57.8371 41.4574 57.1039 41.4574 56.1968V42.6134C41.4574 41.7063 42.194 40.9731 43.1052 40.9731H56.7504C57.6616 40.9731 58.3982 41.7063 58.3982 42.6134V56.1968Z" fill="white"/>
<path d="M17.7434 35.9464C17.7434 36.8535 17.0068 37.5867 16.0956 37.5867H2.45794C1.54673 37.5867 0.810181 36.8535 0.810181 35.9464V22.3706C0.810181 21.4635 1.54673 20.7303 2.45794 20.7303H16.0956C17.0068 20.7303 17.7434 21.4635 17.7434 22.3706V35.9464V35.9464Z" fill="white"/>
<path d="M38.0707 35.9464C38.0707 36.8535 37.3342 37.5867 36.423 37.5867H22.7853C21.8741 37.5867 21.1376 36.8535 21.1376 35.9464V22.3706C21.1376 21.4635 21.8741 20.7303 22.7853 20.7303H36.4306C37.3418 20.7303 38.0783 21.4635 38.0783 22.3706V35.9464H38.0707Z" fill="white"/>
<path d="M17.7434 56.1968C17.7434 57.1039 17.0068 57.8371 16.0956 57.8371H2.45794C1.54673 57.8371 0.810181 57.1039 0.810181 56.1968V42.6134C0.810181 41.7063 1.54673 40.9731 2.45794 40.9731H16.0956C17.0068 40.9731 17.7434 41.7063 17.7434 42.6134V56.1968V56.1968Z" fill="white"/>
<path d="M38.0707 56.1968C38.0707 57.1039 37.3342 57.8371 36.423 57.8371H22.7853C21.8741 57.8371 21.1376 57.1039 21.1376 56.1968V42.6134C21.1376 41.7063 21.8741 40.9731 22.7853 40.9731H36.4306C37.3418 40.9731 38.0783 41.7063 38.0783 42.6134V56.1968H38.0707Z" fill="white"/>
<path d="M17.7434 76.4471C17.7434 77.3542 17.0068 78.0874 16.0956 78.0874H2.45794C1.54673 78.0874 0.810181 77.3542 0.810181 76.4471V62.8713C0.810181 61.9642 1.54673 61.231 2.45794 61.231H16.0956C17.0068 61.231 17.7434 61.9642 17.7434 62.8713V76.4471V76.4471Z" fill="white"/>
<path d="M38.0707 76.4471C38.0707 77.3542 37.3342 78.0874 36.423 78.0874H22.7853C21.8741 78.0874 21.1376 77.3542 21.1376 76.4471V62.8713C21.1376 61.9642 21.8741 61.231 22.7853 61.231H36.4306C37.3418 61.231 38.0783 61.9642 38.0783 62.8713V76.4471H38.0707Z" fill="white"/>
<path d="M18.5938 8.9384C18.5938 14.0558 14.4251 18.2132 9.2768 18.2132C4.1361 18.2132 -0.0326538 14.0634 -0.0326538 8.9384C-0.0326538 3.81345 4.1361 -0.336395 9.2768 -0.336395C14.4251 -0.328836 18.5938 3.82101 18.5938 8.9384Z" fill="#C91517"/>
</g>
<defs>
<clipPath id="clip0_6_12">
<rect width="58" height="78" fill="white"/>
</clipPath>
</defs>
</svg>
