<?xml version="1.0" encoding="utf-8"?>
<!-- Generator: Adobe Illustrator 24.0.1, SVG Export Plug-In . SVG Version: 6.00 Build 0)  -->
<svg version="1.1" id="Camada_1" xmlns="http://www.w3.org/2000/svg" xmlns:xlink="http://www.w3.org/1999/xlink" x="0px" y="0px"
	 viewBox="0 0 183 267" style="enable-background:new 0 0 183 267;" xml:space="preserve">
<style type="text/css">
	.st0{fill:#369837;}
	.st1{fill:#281D16;}
	.st2{fill:#C91517;}
</style>
<g>
	<g>
		<g>
			<path class="st0" d="M183,211.96c0,0.35-0.38,0.63-0.84,0.63H0.84c-0.46,0-0.84-0.28-0.84-0.63c0-0.35,0.38-0.64,0.84-0.64
				h181.32C182.62,211.33,183,211.61,183,211.96"/>
			<path class="st1" d="M117.98,187.94c0.63-0.82,1.57-1.23,2.82-1.23c1.26,0,2.21,0.41,2.86,1.24c0.65,0.83,0.97,2.04,0.97,3.64
				c0,1.61-0.32,2.83-0.97,3.67c-0.65,0.84-1.59,1.26-2.84,1.26c-1.25,0-2.19-0.42-2.83-1.26c-0.64-0.84-0.96-2.06-0.96-3.67
				C117.02,189.98,117.34,188.76,117.98,187.94 M125.05,186.85c-1.04-1.17-2.44-1.75-4.19-1.75c-1.82,0-3.24,0.57-4.27,1.71
				c-1.03,1.14-1.54,2.74-1.54,4.78c0,1.32,0.24,2.47,0.71,3.46c0.47,0.98,1.15,1.74,2.02,2.27c0.87,0.53,1.87,0.79,3,0.79
				c1.82,0,3.25-0.58,4.28-1.72c1.03-1.15,1.55-2.75,1.55-4.79C126.6,189.6,126.08,188.02,125.05,186.85 M111.84,197.88v-8.19
				c0-1.6-0.38-2.77-1.15-3.5c-0.76-0.73-1.91-1.09-3.42-1.09c-0.86,0-1.65,0.17-2.35,0.51c-0.7,0.34-1.25,0.82-1.64,1.44h-0.09
				l-0.31-1.72h-1.55v12.55h1.91v-6.59c0-1.63,0.3-2.81,0.92-3.52c0.61-0.71,1.58-1.07,2.89-1.07c0.99,0,1.72,0.25,2.19,0.76
				c0.47,0.5,0.7,1.27,0.7,2.29v8.12H111.84z M89.94,196.01c-0.42-0.36-0.62-0.88-0.62-1.57c0-0.88,0.33-1.53,1-1.94
				c0.67-0.42,1.76-0.65,3.28-0.7l1.9-0.08v1.14c0,1.17-0.34,2.08-1.01,2.72c-0.68,0.65-1.61,0.97-2.79,0.97
				C90.94,196.54,90.35,196.36,89.94,196.01 M97.4,197.88v-8.57c0-1.47-0.36-2.53-1.08-3.2c-0.72-0.66-1.83-1-3.33-1
				c-0.74,0-1.48,0.1-2.22,0.29c-0.74,0.19-1.42,0.45-2.04,0.79l0.59,1.45c1.32-0.64,2.51-0.96,3.56-0.96c0.93,0,1.61,0.24,2.03,0.7
				c0.43,0.47,0.64,1.2,0.64,2.18v0.78l-2.14,0.07c-4.06,0.12-6.09,1.45-6.09,3.99c0,1.18,0.35,2.09,1.06,2.74
				c0.71,0.64,1.68,0.96,2.93,0.96c0.94,0,1.71-0.14,2.34-0.42c0.62-0.28,1.25-0.81,1.88-1.6h0.09l0.38,1.79H97.4z M82.47,182.88
				c0.22,0.21,0.48,0.32,0.81,0.32c0.31,0,0.57-0.11,0.79-0.32c0.22-0.21,0.33-0.53,0.33-0.95c0-0.43-0.11-0.75-0.33-0.95
				c-0.22-0.21-0.49-0.31-0.79-0.31c-0.32,0-0.59,0.1-0.81,0.3c-0.21,0.2-0.32,0.52-0.32,0.96
				C82.15,182.36,82.26,182.67,82.47,182.88 M84.22,185.33h-1.91v12.55h1.91V185.33z M70.93,196.01c-0.42-0.36-0.63-0.88-0.63-1.57
				c0-0.88,0.34-1.53,1-1.94c0.67-0.42,1.76-0.65,3.28-0.7l1.91-0.08v1.14c0,1.17-0.34,2.08-1.02,2.72
				c-0.68,0.65-1.61,0.97-2.79,0.97C71.93,196.54,71.34,196.36,70.93,196.01 M78.39,197.88v-8.57c0-1.47-0.36-2.53-1.09-3.2
				c-0.72-0.66-1.83-1-3.33-1c-0.74,0-1.48,0.1-2.22,0.29c-0.74,0.19-1.42,0.45-2.04,0.79l0.59,1.45c1.32-0.64,2.51-0.96,3.56-0.96
				c0.93,0,1.61,0.24,2.04,0.7c0.42,0.47,0.64,1.2,0.64,2.18v0.78l-2.14,0.07c-4.06,0.12-6.09,1.45-6.09,3.99
				c0,1.18,0.35,2.09,1.06,2.74c0.71,0.64,1.68,0.96,2.93,0.96c0.94,0,1.71-0.14,2.34-0.42c0.62-0.28,1.25-0.81,1.87-1.6h0.09
				l0.38,1.79H78.39z M59.6,189.96c1.43,0,2.49,0.24,3.19,0.73c0.7,0.49,1.05,1.25,1.05,2.29c0,1.12-0.34,1.94-1.03,2.46
				c-0.68,0.52-1.7,0.78-3.06,0.78h-3.5v-6.26H59.6z M56.26,182.82h2.87c1.47,0,2.54,0.21,3.21,0.63c0.67,0.41,1.01,1.09,1.01,2.03
				c0,1.02-0.3,1.75-0.91,2.18c-0.6,0.43-1.59,0.65-2.97,0.65h-3.21V182.82z M54.3,197.88h5.85c1.82,0,3.24-0.42,4.25-1.26
				c1.01-0.84,1.52-2.01,1.52-3.5c0-2.24-1.28-3.58-3.82-4.01V189c1.06-0.19,1.87-0.61,2.42-1.26c0.55-0.64,0.83-1.46,0.83-2.46
				c0-1.44-0.5-2.48-1.49-3.15c-0.99-0.66-2.61-1-4.83-1H54.3V197.88z"/>
			<path class="st0" d="M102.65,23.99c0,1.2-0.97,2.17-2.17,2.17H82.52c-1.2,0-2.17-0.97-2.17-2.17V6.02c0-1.2,0.97-2.17,2.17-2.17
				h17.97c1.2,0,2.17,0.98,2.17,2.17V23.99z"/>
			<path class="st0" d="M129.42,23.99c0,1.2-0.97,2.17-2.17,2.17h-17.97c-1.2,0-2.17-0.97-2.17-2.17V6.02c0-1.2,0.97-2.17,2.17-2.17
				h17.97c1.2,0,2.17,0.98,2.17,2.17V23.99z"/>
			<path class="st0" d="M129.42,77.52c0,1.2-0.97,2.17-2.17,2.17h-17.97c-1.2,0-2.17-0.97-2.17-2.17V59.55
				c0-1.2,0.97-2.17,2.17-2.17h17.97c1.2,0,2.17,0.97,2.17,2.17V77.52z"/>
			<path class="st0" d="M75.88,50.73c0,1.2-0.97,2.17-2.17,2.17H55.75c-1.2,0-2.17-0.97-2.17-2.17V32.77c0-1.2,0.97-2.17,2.17-2.17
				h17.96c1.2,0,2.17,0.97,2.17,2.17V50.73z"/>
			<path class="st0" d="M102.65,50.73c0,1.2-0.97,2.17-2.17,2.17H82.52c-1.2,0-2.17-0.97-2.17-2.17V32.77c0-1.2,0.97-2.17,2.17-2.17
				h17.97c1.2,0,2.17,0.97,2.17,2.17V50.73z"/>
			<path class="st0" d="M75.88,77.52c0,1.2-0.97,2.17-2.17,2.17H55.75c-1.2,0-2.17-0.97-2.17-2.17V59.55c0-1.2,0.97-2.17,2.17-2.17
				h17.96c1.2,0,2.17,0.97,2.17,2.17V77.52z"/>
			<path class="st0" d="M102.65,77.52c0,1.2-0.97,2.17-2.17,2.17H82.52c-1.2,0-2.17-0.97-2.17-2.17V59.55c0-1.2,0.97-2.17,2.17-2.17
				h17.97c1.2,0,2.17,0.97,2.17,2.17V77.52z"/>
			<path class="st0" d="M75.88,104.31c0,1.2-0.97,2.17-2.17,2.17H55.75c-1.2,0-2.17-0.97-2.17-2.17V86.35c0-1.2,0.97-2.17,2.17-2.17
				h17.96c1.2,0,2.17,0.97,2.17,2.17V104.31z"/>
			<path class="st0" d="M102.65,104.31c0,1.2-0.97,2.17-2.17,2.17H82.52c-1.2,0-2.17-0.97-2.17-2.17V86.35
				c0-1.2,0.97-2.17,2.17-2.17h17.97c1.2,0,2.17,0.97,2.17,2.17V104.31z"/>
			<path class="st2" d="M77,15c0,6.77-5.49,12.27-12.27,12.27c-6.77,0-12.26-5.49-12.26-12.27c0-6.78,5.49-12.27,12.26-12.27
				C71.51,2.74,77,8.23,77,15"/>
			<rect x="10.71" y="122.08" class="st1" width="4.71" height="22.19"/>
			<path class="st1" d="M40.77,122.09h-4.24v10.5c0,1.19,0.07,3.24,0.23,6.12h-0.11l-9.66-16.62h-5.94v22.19h4.21v-10.44
				c0-1.26-0.1-3.38-0.29-6.34h0.14l9.67,16.79h5.99V122.09z"/>
			<path class="st1" d="M58.39,134.45c-0.77-1-2.2-1.99-4.27-2.98c-1.57-0.75-2.57-1.27-2.99-1.56c-0.42-0.29-0.73-0.59-0.92-0.89
				c-0.19-0.31-0.29-0.67-0.29-1.08c0-0.67,0.24-1.21,0.71-1.63c0.48-0.41,1.16-0.62,2.05-0.62c0.75,0,1.52,0.1,2.29,0.29
				c0.78,0.19,1.76,0.53,2.94,1.02l1.52-3.66c-1.15-0.49-2.24-0.88-3.29-1.15c-1.05-0.27-2.15-0.41-3.31-0.41
				c-2.35,0-4.19,0.56-5.53,1.68c-1.34,1.12-2,2.67-2,4.63c0,1.04,0.2,1.96,0.61,2.73c0.41,0.78,0.95,1.46,1.63,2.05
				c0.68,0.59,1.7,1.2,3.06,1.84c1.45,0.69,2.41,1.19,2.88,1.5c0.47,0.31,0.83,0.64,1.07,0.98c0.24,0.34,0.36,0.73,0.36,1.16
				c0,0.78-0.28,1.37-0.83,1.76c-0.55,0.39-1.34,0.59-2.38,0.59c-0.86,0-1.81-0.14-2.85-0.41c-1.04-0.27-2.31-0.75-3.81-1.41v4.37
				c1.82,0.89,3.92,1.34,6.3,1.34c2.58,0,4.58-0.58,6.03-1.73c1.44-1.15,2.17-2.73,2.17-4.74
				C59.55,136.67,59.16,135.45,58.39,134.45"/>
			<path class="st1" d="M100.56,126h6.04v-3.92H89.81V126h6.04v18.27h4.71V126z M86.39,122.09h-4.71v22.19h4.71V122.09z M72.22,126
				h6.04v-3.92H61.47V126h6.04v18.27h4.71V126z"/>
			<path class="st1" d="M123.5,122.09v13.56c0,1.72-0.35,2.98-1.04,3.79c-0.69,0.8-1.81,1.21-3.35,1.21c-1.59,0-2.73-0.4-3.42-1.2
				c-0.69-0.8-1.04-2.05-1.04-3.76v-13.59h-4.7v14.3c0,2.54,0.79,4.54,2.37,6c1.58,1.46,3.8,2.19,6.66,2.19
				c1.89,0,3.54-0.33,4.93-0.98c1.39-0.66,2.45-1.61,3.18-2.84c0.74-1.24,1.1-2.67,1.1-4.31v-14.36H123.5z"/>
			<polygon class="st1" points="142.28,126 148.32,126 148.32,122.09 131.53,122.09 131.53,126 137.57,126 137.57,144.28 
				142.28,144.28 			"/>
			<path class="st1" d="M157.15,127.54c0.95-1.26,2.37-1.89,4.24-1.89c3.74,0,5.61,2.5,5.61,7.5c0,4.99-1.88,7.48-5.64,7.48
				c-1.88,0-3.29-0.63-4.23-1.88c-0.94-1.25-1.41-3.12-1.41-5.6C155.72,130.67,156.2,128.8,157.15,127.54 M169.23,124.68
				c-1.81-1.96-4.42-2.94-7.84-2.94c-3.42,0-6.04,0.98-7.87,2.92c-1.83,1.95-2.75,4.77-2.75,8.46c0,3.7,0.91,6.53,2.74,8.5
				c1.83,1.97,4.44,2.96,7.85,2.96c3.41,0,6.02-0.98,7.84-2.96c1.82-1.97,2.74-4.8,2.74-8.47
				C171.95,129.47,171.04,126.65,169.23,124.68"/>
			<polygon class="st1" points="30.82,162.18 38.36,162.18 38.36,158.34 30.82,158.34 30.82,152.61 38.92,152.61 38.92,148.76 
				26.18,148.76 26.18,170.95 30.82,170.95 			"/>
			<path class="st1" d="M108.49,162.43l5.31,8.52h5.23c-1.01-1.46-3.19-4.68-6.54-9.67c1.32-0.58,2.34-1.37,3.05-2.39
				c0.72-1.02,1.08-2.18,1.08-3.48c0-2.24-0.72-3.9-2.17-5c-1.45-1.1-3.69-1.65-6.71-1.65h-6.48v22.19h4.71v-8.52H108.49z
				 M105.98,152.61h1.43c1.52,0,2.65,0.22,3.37,0.67c0.72,0.45,1.09,1.19,1.09,2.25c0,1.06-0.36,1.84-1.07,2.34
				c-0.71,0.49-1.81,0.74-3.3,0.74h-1.52V152.61z M96.64,167.06h-8.09v-5.72h7.53v-3.86h-7.53v-4.87h8.09v-3.86H83.83v22.19h12.81
				V167.06z M67.51,167.06h-2.02v-14.45H68c4.22,0,6.32,2.38,6.32,7.15C74.33,164.63,72.06,167.06,67.51,167.06 M76.21,151.63
				c-2.01-1.91-4.82-2.87-8.45-2.87h-6.98v22.19h6.3c3.93,0,6.94-0.97,9.03-2.91c2.08-1.94,3.12-4.74,3.12-8.39
				C79.22,156.21,78.22,153.54,76.21,151.63 M56.14,167.06h-8.09v-5.72h7.53v-3.86h-7.53v-4.87h8.09v-3.86h-12.8v22.19h12.8V167.06z
				"/>
			<path class="st1" d="M127.02,161.72c1.58-5.11,2.54-8.32,2.87-9.61c0.08,0.37,0.21,0.86,0.4,1.49c0.19,0.63,1.03,3.33,2.52,8.12
				H127.02z M140.63,170.95l-7.88-22.28h-5.76l-7.85,22.28h5.08l1.61-5.28h8.11l1.61,5.28H140.63z"/>
			<polygon class="st1" points="157.22,170.95 157.22,167.06 148.2,167.06 148.2,148.76 143.49,148.76 143.49,170.95 			"/>
			<path class="st1" d="M58.93,223.56c-1.72,0-3.07,0.57-4.07,1.72c-0.99,1.14-1.49,2.71-1.49,4.7c0,2.05,0.48,3.63,1.44,4.74
				c0.96,1.12,2.32,1.67,4.1,1.67c1.09,0,2.33-0.19,3.73-0.59v1.59c-1.08,0.41-2.42,0.61-4.01,0.61c-2.3,0-4.08-0.7-5.33-2.1
				c-1.25-1.4-1.87-3.38-1.87-5.95c0-1.61,0.3-3.02,0.9-4.23c0.6-1.21,1.47-2.14,2.61-2.8c1.14-0.66,2.47-0.98,4.01-0.98
				c1.64,0,3.07,0.3,4.3,0.9l-0.77,1.56C61.3,223.83,60.12,223.56,58.93,223.56"/>
			<path class="st1" d="M72.99,237.78l-0.35-1.67h-0.08c-0.58,0.73-1.17,1.23-1.75,1.49c-0.58,0.26-1.31,0.39-2.17,0.39
				c-1.16,0-2.07-0.3-2.73-0.9c-0.66-0.6-0.99-1.45-0.99-2.55c0-2.37,1.89-3.61,5.67-3.72l1.99-0.06v-0.73c0-0.92-0.2-1.6-0.59-2.04
				c-0.39-0.44-1.03-0.66-1.9-0.66c-0.98,0-2.08,0.3-3.31,0.9l-0.55-1.36c0.58-0.31,1.21-0.56,1.9-0.74
				c0.69-0.18,1.38-0.27,2.07-0.27c1.4,0,2.43,0.31,3.1,0.93c0.67,0.62,1.01,1.61,1.01,2.98v7.99H72.99z M68.98,236.53
				c1.11,0,1.97-0.3,2.6-0.91c0.63-0.61,0.95-1.45,0.95-2.54v-1.06l-1.77,0.08c-1.41,0.05-2.43,0.27-3.05,0.66
				c-0.62,0.39-0.94,0.99-0.94,1.81c0,0.64,0.19,1.13,0.58,1.46C67.74,236.36,68.28,236.53,68.98,236.53"/>
			<path class="st1" d="M92.89,237.78v-7.62c0-0.93-0.2-1.63-0.6-2.1c-0.4-0.47-1.02-0.7-1.86-0.7c-1.1,0-1.92,0.32-2.45,0.95
				c-0.53,0.63-0.79,1.61-0.79,2.93v6.54h-1.77v-7.62c0-0.93-0.2-1.63-0.6-2.1c-0.4-0.47-1.02-0.7-1.87-0.7
				c-1.11,0-1.93,0.33-2.44,1c-0.52,0.67-0.78,1.76-0.78,3.28v6.14h-1.77v-11.71h1.44l0.29,1.6h0.09c0.34-0.57,0.81-1.02,1.42-1.34
				c0.61-0.32,1.29-0.48,2.05-0.48c1.83,0,3.03,0.66,3.59,1.99h0.09c0.35-0.61,0.85-1.1,1.52-1.45c0.66-0.36,1.42-0.54,2.27-0.54
				c1.32,0,2.32,0.34,2.98,1.02c0.66,0.68,0.99,1.77,0.99,3.26v7.64H92.89z"/>
			<path class="st1" d="M103.77,238c-0.76,0-1.46-0.14-2.09-0.42s-1.16-0.71-1.59-1.3h-0.13c0.08,0.68,0.13,1.33,0.13,1.94v4.82
				h-1.77v-16.97h1.44l0.25,1.6h0.09c0.46-0.64,0.99-1.1,1.59-1.39c0.61-0.29,1.3-0.43,2.08-0.43c1.55,0,2.75,0.53,3.6,1.59
				c0.84,1.06,1.27,2.55,1.27,4.47c0,1.92-0.43,3.42-1.29,4.48C106.49,237.46,105.29,238,103.77,238 M103.51,227.36
				c-1.2,0-2.06,0.33-2.6,0.99c-0.54,0.66-0.81,1.72-0.82,3.16v0.4c0,1.65,0.27,2.82,0.82,3.53c0.55,0.71,1.43,1.06,2.64,1.06
				c1.01,0,1.81-0.41,2.38-1.23c0.57-0.82,0.86-1.95,0.86-3.39c0-1.46-0.29-2.58-0.86-3.36
				C105.36,227.75,104.55,227.36,103.51,227.36"/>
			<path class="st1" d="M113.4,226.07v7.6c0,0.95,0.22,1.67,0.65,2.14c0.43,0.47,1.11,0.71,2.04,0.71c1.23,0,2.12-0.34,2.69-1
				c0.57-0.67,0.85-1.76,0.85-3.28v-6.16h1.77v11.71h-1.46l-0.26-1.57h-0.09c-0.36,0.58-0.87,1.02-1.51,1.32
				c-0.64,0.31-1.38,0.46-2.21,0.46c-1.42,0-2.49-0.34-3.2-1.02c-0.71-0.68-1.06-1.76-1.06-3.25v-7.66H113.4z"/>
			<path class="st1" d="M132.72,234.59c0,1.09-0.41,1.93-1.22,2.52c-0.81,0.59-1.95,0.89-3.42,0.89c-1.55,0-2.76-0.25-3.63-0.74
				v-1.65c0.56,0.29,1.17,0.51,1.81,0.67c0.64,0.16,1.27,0.25,1.87,0.25c0.93,0,1.64-0.15,2.14-0.44c0.5-0.29,0.75-0.75,0.75-1.35
				c0-0.45-0.2-0.85-0.59-1.17c-0.4-0.32-1.17-0.71-2.32-1.15c-1.09-0.41-1.86-0.76-2.32-1.06c-0.46-0.3-0.8-0.65-1.03-1.03
				c-0.22-0.38-0.34-0.84-0.34-1.38c0-0.95,0.39-1.71,1.17-2.26c0.78-0.55,1.84-0.83,3.2-0.83c1.26,0,2.49,0.26,3.7,0.77l-0.63,1.44
				c-1.18-0.48-2.24-0.73-3.2-0.73c-0.84,0-1.47,0.13-1.9,0.4c-0.43,0.26-0.64,0.63-0.64,1.09c0,0.31,0.08,0.58,0.24,0.8
				c0.16,0.22,0.42,0.43,0.78,0.63c0.36,0.2,1.04,0.49,2.05,0.87c1.39,0.51,2.33,1.02,2.82,1.53
				C132.48,233.16,132.72,233.81,132.72,234.59"/>
			<path class="st1" d="M47.7,255.86h5.31v7.6c-0.83,0.26-1.67,0.46-2.52,0.6c-0.86,0.14-1.85,0.2-2.97,0.2
				c-2.37,0-4.21-0.7-5.53-2.11c-1.32-1.41-1.98-3.38-1.98-5.92c0-1.62,0.33-3.05,0.98-4.27c0.65-1.22,1.59-2.15,2.82-2.8
				c1.23-0.64,2.66-0.97,4.31-0.97c1.67,0,3.22,0.31,4.66,0.92l-0.71,1.6c-1.41-0.6-2.77-0.9-4.07-0.9c-1.9,0-3.39,0.57-4.46,1.7
				s-1.6,2.7-1.6,4.71c0,2.11,0.52,3.71,1.54,4.8c1.03,1.09,2.54,1.64,4.54,1.64c1.08,0,2.14-0.12,3.17-0.37v-4.81h-3.5V255.86z"/>
			<path class="st1" d="M58.16,252.34v7.6c0,0.95,0.22,1.67,0.65,2.14c0.43,0.47,1.11,0.71,2.04,0.71c1.22,0,2.12-0.34,2.69-1
				c0.57-0.67,0.85-1.76,0.85-3.28v-6.16h1.78v11.71H64.7l-0.26-1.57h-0.1c-0.36,0.58-0.87,1.02-1.51,1.32
				c-0.64,0.31-1.38,0.46-2.21,0.46c-1.42,0-2.49-0.34-3.2-1.02c-0.71-0.68-1.06-1.76-1.06-3.25v-7.66H58.16z"/>
			<path class="st1" d="M77.13,264.05l-0.35-1.67H76.7c-0.58,0.73-1.17,1.23-1.75,1.49c-0.58,0.26-1.31,0.39-2.17,0.39
				c-1.16,0-2.07-0.3-2.73-0.9c-0.66-0.6-0.99-1.45-0.99-2.55c0-2.37,1.89-3.61,5.67-3.72l1.99-0.06v-0.73c0-0.92-0.2-1.6-0.59-2.04
				c-0.39-0.44-1.03-0.66-1.9-0.66c-0.98,0-2.08,0.3-3.31,0.9l-0.55-1.36c0.58-0.31,1.21-0.56,1.9-0.74
				c0.69-0.18,1.38-0.27,2.07-0.27c1.4,0,2.43,0.31,3.1,0.93c0.67,0.62,1.01,1.61,1.01,2.98v7.99H77.13z M73.13,262.8
				c1.11,0,1.97-0.3,2.6-0.91c0.63-0.61,0.95-1.45,0.95-2.54v-1.06l-1.77,0.08c-1.41,0.05-2.43,0.27-3.05,0.66
				c-0.62,0.39-0.94,0.99-0.94,1.81c0,0.64,0.19,1.13,0.58,1.46C71.89,262.63,72.43,262.8,73.13,262.8"/>
			<path class="st1" d="M90.12,264.05v-7.58c0-0.95-0.22-1.67-0.65-2.14c-0.44-0.47-1.12-0.71-2.04-0.71
				c-1.23,0-2.12,0.33-2.69,0.99c-0.57,0.66-0.86,1.76-0.86,3.28v6.14H82.1v-11.71h1.44l0.29,1.6h0.09
				c0.36-0.58,0.87-1.02,1.53-1.34c0.66-0.32,1.39-0.48,2.19-0.48c1.41,0,2.47,0.34,3.18,1.02c0.71,0.68,1.07,1.77,1.07,3.26v7.64
				H90.12z"/>
			<path class="st1" d="M102.74,264.05l-0.35-1.67h-0.08c-0.58,0.73-1.17,1.23-1.75,1.49c-0.58,0.26-1.31,0.39-2.17,0.39
				c-1.16,0-2.07-0.3-2.73-0.9c-0.66-0.6-0.99-1.45-0.99-2.55c0-2.37,1.89-3.61,5.68-3.72l1.99-0.06v-0.73c0-0.92-0.2-1.6-0.59-2.04
				c-0.4-0.44-1.03-0.66-1.9-0.66c-0.98,0-2.08,0.3-3.31,0.9l-0.54-1.36c0.58-0.31,1.21-0.56,1.9-0.74
				c0.69-0.18,1.38-0.27,2.07-0.27c1.4,0,2.43,0.31,3.1,0.93c0.67,0.62,1.01,1.61,1.01,2.98v7.99H102.74z M98.74,262.8
				c1.1,0,1.97-0.3,2.6-0.91c0.63-0.61,0.95-1.45,0.95-2.54v-1.06l-1.77,0.08c-1.41,0.05-2.43,0.27-3.05,0.66
				c-0.62,0.39-0.94,0.99-0.94,1.81c0,0.64,0.19,1.13,0.58,1.46C97.49,262.63,98.04,262.8,98.74,262.8"/>
			<path class="st1" d="M122.64,264.05v-7.62c0-0.93-0.2-1.63-0.6-2.1c-0.4-0.47-1.02-0.7-1.86-0.7c-1.1,0-1.92,0.32-2.45,0.95
				c-0.53,0.63-0.79,1.61-0.79,2.93v6.54h-1.77v-7.62c0-0.93-0.2-1.63-0.6-2.1c-0.4-0.47-1.02-0.7-1.87-0.7
				c-1.11,0-1.93,0.33-2.44,1c-0.52,0.67-0.78,1.76-0.78,3.28v6.14h-1.77v-11.71h1.44l0.29,1.6h0.09c0.34-0.57,0.81-1.02,1.42-1.34
				c0.61-0.32,1.29-0.48,2.05-0.48c1.83,0,3.03,0.66,3.59,1.99h0.08c0.35-0.61,0.86-1.1,1.52-1.45c0.66-0.36,1.42-0.54,2.27-0.54
				c1.32,0,2.32,0.34,2.98,1.02c0.66,0.68,0.99,1.77,0.99,3.26v7.64H122.64z"/>
			<path class="st1" d="M133.52,252.14c1.54,0,2.73,0.53,3.59,1.58c0.85,1.05,1.28,2.54,1.28,4.46c0,1.92-0.43,3.42-1.29,4.48
				c-0.86,1.07-2.05,1.6-3.57,1.6c-0.76,0-1.46-0.14-2.09-0.42c-0.63-0.28-1.16-0.71-1.59-1.3h-0.13l-0.38,1.51h-1.27v-16.63h1.77
				v4.04c0,0.9-0.03,1.72-0.09,2.44h0.09C130.67,252.73,131.9,252.14,133.52,252.14 M133.27,253.63c-1.21,0-2.08,0.35-2.62,1.04
				c-0.53,0.69-0.8,1.86-0.8,3.51c0,1.65,0.27,2.82,0.82,3.53c0.55,0.71,1.43,1.06,2.64,1.06c1.09,0,1.9-0.4,2.44-1.19
				c0.54-0.79,0.8-1.94,0.8-3.43c0-1.52-0.27-2.66-0.8-3.41C135.21,254,134.39,253.63,133.27,253.63"/>
			<path class="st1" d="M141.34,249.16c0-0.41,0.1-0.7,0.3-0.89c0.2-0.19,0.45-0.28,0.75-0.28c0.29,0,0.53,0.1,0.74,0.29
				c0.21,0.19,0.31,0.49,0.31,0.89s-0.1,0.7-0.31,0.89s-0.45,0.29-0.74,0.29c-0.3,0-0.55-0.1-0.75-0.29
				C141.44,249.86,141.34,249.56,141.34,249.16 M143.26,264.05h-1.77v-11.71h1.77V264.05z"/>
		</g>
	</g>
</g>
</svg>
