<svg id="visual" viewBox="0 0 900 600" width="900" height="600" xmlns="http://www.w3.org/2000/svg" xmlns:xlink="http://www.w3.org/1999/xlink" version="1.1"><rect x="0" y="0" width="900" height="600" fill="#ffffff"></rect><path d="M0 475L30 482.2C60 489.3 120 503.7 180 511.2C240 518.7 300 519.3 360 514.3C420 509.3 480 498.7 540 485.7C600 472.7 660 457.3 720 461.7C780 466 840 490 870 502L900 514L900 601L870 601C840 601 780 601 720 601C660 601 600 601 540 601C480 601 420 601 360 601C300 601 240 601 180 601C120 601 60 601 30 601L0 601Z" fill="#59981A" stroke-linecap="round" stroke-linejoin="miter"></path></svg>